<svg xmlns="http://www.w3.org/2000/svg" viewBox="0 0 274.96 399.36"><defs><style>.a,.b{fill:none;stroke:#231f20;stroke-miterlimit:10;}.a{stroke-width:0.2px;}.b{stroke-width:0.2px;}</style></defs><rect class="a" x="94.36" y="37.67" width="58.13" height="58.13" transform="translate(-11.04 106.82) rotate(-45)"/><circle class="a" cx="167.13" cy="107.83" r="107.72"/><circle class="a" cx="96.4" cy="214.23" r="66.61"/><circle class="a" cx="41.21" cy="121.73" r="41.1"/><path class="b" d="M96.4,388.24l5.49,5.49-5.49,5.49-5.49-5.49,5.49-5.49V219.9a5.67,5.67,0,1,0-5.67-5.67h0a5.67,5.67,0,0,0,5.67,5.67"/><path class="b" d="M41.21,295.74l5.49,5.49-5.49,5.49-5.49-5.49,5.49-5.49V127.4a5.67,5.67,0,1,0-5.67-5.67h0a5.67,5.67,0,0,0,5.67,5.67"/></svg>