<svg xmlns="http://www.w3.org/2000/svg" viewBox="0 0 686.71 115.29"><defs><style>.cls-1{fill:none;stroke:#000;stroke-miterlimit:10;}</style></defs><g id="Layer_2" data-name="Layer 2"><g id="Layer_1-2" data-name="Layer 1"><path class="cls-1" d="M457.64,57.64a57.15,57.15,0,1,0,114.29,0,57.14,57.14,0,1,1,57.14,57.15,57.14,57.14,0,0,1-57.14-57.15,57.15,57.15,0,0,0-114.29,0,57.14,57.14,0,1,1-114.28,0,57.15,57.15,0,0,0-114.29,0,57.14,57.14,0,1,1-114.28,0,57.15,57.15,0,1,0-57.15,57.15,57.15,57.15,0,0,0,57.15-57.15,57.14,57.14,0,1,1,114.28,0,57.15,57.15,0,1,0,114.29,0,57.14,57.14,0,1,1,114.28,0Z"/></g></g></svg>