<svg xmlns="http://www.w3.org/2000/svg" viewBox="0 0 241.14 327.99"><defs><style>.cls-1{fill:none;stroke:#231f20;stroke-miterlimit:10;stroke-width:0.2px;}</style></defs><g id="Layer_2" data-name="Layer 2"><g id="effects"><path class="cls-1" d="M107.82,11.44A107.72,107.72,0,1,1,.1,119.16,107.71,107.71,0,0,1,107.82,11.44"/><path class="cls-1" d="M174.43.1a66.62,66.62,0,1,1-66.61,66.61A66.61,66.61,0,0,1,174.43.1"/><path class="cls-1" d="M174.43,240.72l5.49,5.49-5.49,5.49-5.49-5.49,5.49-5.49V72.38a5.67,5.67,0,1,0-5.67-5.67,5.67,5.67,0,0,0,5.67,5.67"/><path class="cls-1" d="M39.63,148.22l-5.49-5.49,5.49-5.49,5.49,5.49-5.49,5.49V316.55a5.67,5.67,0,1,0,5.67,5.67,5.67,5.67,0,0,0-5.67-5.67"/><polygon class="cls-1" points="113.31 210.59 107.82 216.09 102.33 210.59 113.31 199.62 102.33 188.65 107.82 183.16 113.31 188.65 102.33 199.62 113.31 210.59"/><path class="cls-1" d="M19.25,81a5.68,5.68,0,1,1-7.54,2.81A5.67,5.67,0,0,1,19.25,81,96.81,96.81,0,0,1,63.87,33.31h0A5.67,5.67,0,1,0,66,25.56a5.69,5.69,0,0,0-2.08,7.74"/><polyline class="cls-1" points="107.82 23.53 148.92 64.63 107.82 105.73 66.71 64.63 107.82 23.53"/></g></g></svg>